#N canvas 905 210 805 729 12;
#X obj 253 136 unpack 0 0 0 0 0 0 0 0 0 0 0 0;
#X obj 163 227 * 1000;
#X obj 228 233 * 1000;
#X obj 288 231 * 1000;
#X obj 409 228 * 1000;
#X obj 476 230 * 1000;
#X obj 349 230 * 1000;
#X obj 538 228 * 1000;
#X obj 604 227 * 1000;
#X obj 677 225 * 1000;
#X floatatom 93 281 5 0 0 0 - - - 0;
#X floatatom 156 281 5 0 0 0 - - - 0;
#X floatatom 219 283 5 0 0 0 - - - 0;
#X floatatom 278 284 5 0 0 0 - - - 0;
#X floatatom 348 286 5 0 0 0 - - - 0;
#X floatatom 411 284 5 0 0 0 - - - 0;
#X floatatom 474 284 5 0 0 0 - - - 0;
#X floatatom 541 283 5 0 0 0 - - - 0;
#X floatatom 605 281 5 0 0 0 - - - 0;
#X floatatom 679 278 5 0 0 0 - - - 0;
#X obj 238 371 phasor~;
#X obj 143 366 osc~;
#X obj 199 62 route list;
#X obj 199 30 receive fromGUI;
#X obj 199 92 route /knapp /multi;
#X floatatom 27 276 5 0 0 0 - - - 0;
#X obj 367 376 osc~;
#X obj 609 371 phasor~;
#X obj 487 375 noise~;
#X obj 398 619 dac~;
#X obj 391 551 *~ 0.2;
#X obj 29 232 * 1000;
#X obj 97 229 * 1000;
#X connect 0 0 31 0;
#X connect 0 1 32 0;
#X connect 0 3 1 0;
#X connect 0 4 2 0;
#X connect 0 5 3 0;
#X connect 0 6 6 0;
#X connect 0 7 4 0;
#X connect 0 8 5 0;
#X connect 0 9 7 0;
#X connect 0 10 8 0;
#X connect 0 11 9 0;
#X connect 1 0 11 0;
#X connect 2 0 12 0;
#X connect 3 0 13 0;
#X connect 4 0 15 0;
#X connect 5 0 16 0;
#X connect 6 0 14 0;
#X connect 7 0 17 0;
#X connect 8 0 18 0;
#X connect 9 0 19 0;
#X connect 10 0 21 0;
#X connect 11 0 21 0;
#X connect 12 0 20 0;
#X connect 13 0 20 0;
#X connect 14 0 26 0;
#X connect 15 0 26 0;
#X connect 16 0 28 0;
#X connect 17 0 28 0;
#X connect 18 0 27 0;
#X connect 19 0 27 0;
#X connect 20 0 30 0;
#X connect 21 0 30 0;
#X connect 22 0 24 0;
#X connect 23 0 22 0;
#X connect 24 0 30 1;
#X connect 24 1 0 0;
#X connect 25 0 21 0;
#X connect 26 0 30 0;
#X connect 27 0 30 0;
#X connect 28 0 30 0;
#X connect 30 0 29 0;
#X connect 30 0 29 1;
#X connect 31 0 25 0;
#X connect 32 0 10 0;
